<mxfile host="Electron" agent="Mozilla/5.0 (X11; Linux x86_64) AppleWebKit/537.36 (KHTML, like Gecko) draw.io/26.0.16 Chrome/132.0.6834.196 Electron/34.2.0 Safari/537.36" version="26.0.16">
  <diagram name="Page-1" id="7wWMViaq6PvK1SXtaPa_">
    <mxGraphModel dx="1269" dy="764" grid="1" gridSize="10" guides="1" tooltips="1" connect="1" arrows="1" fold="1" page="1" pageScale="1" pageWidth="950" pageHeight="1100" math="0" shadow="0">
      <root>
        <mxCell id="0" />
        <mxCell id="1" parent="0" />
        <mxCell id="gfG6gXxhwaxKdNr7QjR5-1" value="" style="edgeStyle=orthogonalEdgeStyle;rounded=0;orthogonalLoop=1;jettySize=auto;html=1;startSize=6;strokeWidth=3;targetPerimeterSpacing=6;sourcePerimeterSpacing=6;fontSize=18;fontStyle=0" parent="1" target="gfG6gXxhwaxKdNr7QjR5-2" edge="1">
          <mxGeometry relative="1" as="geometry">
            <mxPoint x="860.0799999999999" y="306.34615384615387" as="sourcePoint" />
          </mxGeometry>
        </mxCell>
        <mxCell id="gfG6gXxhwaxKdNr7QjR5-2" value="Utilizing ENA advanced search tool for&amp;nbsp;Taxon:21024&amp;nbsp;Fagus (genus)" style="rounded=0;whiteSpace=wrap;html=1;container=0;fontSize=18;fontStyle=0;strokeWidth=3;" parent="1" vertex="1">
          <mxGeometry x="722" y="355.38" width="278" height="104.62" as="geometry" />
        </mxCell>
        <mxCell id="gfG6gXxhwaxKdNr7QjR5-3" value="Searching for fagus in ENA" style="rounded=0;whiteSpace=wrap;html=1;container=0;fontSize=18;fontStyle=0;strokeWidth=3;" parent="1" vertex="1">
          <mxGeometry x="753.0030769230768" y="240" width="214.15384615384613" height="57.692307692307686" as="geometry" />
        </mxCell>
        <mxCell id="gfG6gXxhwaxKdNr7QjR5-4" value="" style="edgeStyle=orthogonalEdgeStyle;rounded=0;orthogonalLoop=1;jettySize=auto;html=1;strokeWidth=3;targetPerimeterSpacing=10;sourcePerimeterSpacing=10;" parent="1" source="gfG6gXxhwaxKdNr7QjR5-5" target="gfG6gXxhwaxKdNr7QjR5-14" edge="1">
          <mxGeometry relative="1" as="geometry" />
        </mxCell>
        <mxCell id="gfG6gXxhwaxKdNr7QjR5-5" value="37 Study registries" style="rounded=0;whiteSpace=wrap;html=1;container=0;fontSize=18;fontStyle=0;strokeWidth=3;" parent="1" vertex="1">
          <mxGeometry x="475.0030769230769" y="630" width="214.15384615384613" height="57.692307692307686" as="geometry" />
        </mxCell>
        <mxCell id="gfG6gXxhwaxKdNr7QjR5-6" value="" style="edgeStyle=orthogonalEdgeStyle;rounded=0;orthogonalLoop=1;jettySize=auto;html=1;strokeWidth=3;targetPerimeterSpacing=6;sourcePerimeterSpacing=6;" parent="1" source="gfG6gXxhwaxKdNr7QjR5-8" target="gfG6gXxhwaxKdNr7QjR5-12" edge="1">
          <mxGeometry relative="1" as="geometry" />
        </mxCell>
        <mxCell id="gfG6gXxhwaxKdNr7QjR5-7" value="" style="edgeStyle=orthogonalEdgeStyle;rounded=0;orthogonalLoop=1;jettySize=auto;html=1;targetPerimeterSpacing=10;sourcePerimeterSpacing=10;strokeWidth=3;" parent="1" source="gfG6gXxhwaxKdNr7QjR5-8" target="gfG6gXxhwaxKdNr7QjR5-14" edge="1">
          <mxGeometry relative="1" as="geometry" />
        </mxCell>
        <mxCell id="gfG6gXxhwaxKdNr7QjR5-8" value="5441 Sample registries" style="rounded=0;whiteSpace=wrap;html=1;container=0;fontSize=18;fontStyle=0;strokeWidth=3;" parent="1" vertex="1">
          <mxGeometry x="1244.253076923077" y="630" width="214.15384615384613" height="57.692307692307686" as="geometry" />
        </mxCell>
        <mxCell id="gfG6gXxhwaxKdNr7QjR5-9" value="Studies data type" style="shape=singleArrow;direction=west;whiteSpace=wrap;html=1;rotation=-49;strokeWidth=3;fontSize=16;" parent="1" vertex="1">
          <mxGeometry x="573.87" y="485.07" width="170.44" height="100" as="geometry" />
        </mxCell>
        <mxCell id="gfG6gXxhwaxKdNr7QjR5-10" value="&lt;font style=&quot;font-size: 16px;&quot;&gt;Samples data type&lt;/font&gt;" style="shape=singleArrow;whiteSpace=wrap;html=1;rotation=35;strokeWidth=3;" parent="1" vertex="1">
          <mxGeometry x="1004" y="485.07" width="240.25" height="100" as="geometry" />
        </mxCell>
        <mxCell id="gfG6gXxhwaxKdNr7QjR5-11" value="" style="edgeStyle=orthogonalEdgeStyle;rounded=0;orthogonalLoop=1;jettySize=auto;html=1;targetPerimeterSpacing=6;sourcePerimeterSpacing=6;strokeWidth=3;" parent="1" source="gfG6gXxhwaxKdNr7QjR5-12" target="gfG6gXxhwaxKdNr7QjR5-13" edge="1">
          <mxGeometry relative="1" as="geometry" />
        </mxCell>
        <mxCell id="gfG6gXxhwaxKdNr7QjR5-12" value="&lt;font style=&quot;font-size: 16px;&quot;&gt;Calculating metrics&lt;/font&gt;" style="text;html=1;align=center;verticalAlign=middle;resizable=0;points=[];autosize=1;strokeColor=none;fillColor=none;" parent="1" vertex="1">
          <mxGeometry x="1271.33" y="760" width="160" height="30" as="geometry" />
        </mxCell>
        <mxCell id="gfG6gXxhwaxKdNr7QjR5-13" value="853&lt;span style=&quot;background-color: transparent; color: light-dark(rgb(0, 0, 0), rgb(255, 255, 255));&quot;&gt;&amp;nbsp;registries with coordinates&lt;/span&gt;&lt;div&gt;&lt;div&gt;4596 registries accompanied by studies&lt;/div&gt;&lt;div&gt;4435 registries with country of origin&lt;/div&gt;&lt;/div&gt;" style="rounded=0;whiteSpace=wrap;html=1;container=0;fontSize=18;fontStyle=0;strokeWidth=3;" parent="1" vertex="1">
          <mxGeometry x="1178" y="860" width="346.66" height="120" as="geometry" />
        </mxCell>
        <mxCell id="gfG6gXxhwaxKdNr7QjR5-14" value="&lt;font style=&quot;font-size: 22px;&quot;&gt;Merging json files&lt;/font&gt;" style="rounded=0;whiteSpace=wrap;html=1;container=0;fontSize=18;fontStyle=0;strokeWidth=3;" parent="1" vertex="1">
          <mxGeometry x="825.003076923077" y="630" width="214.15384615384613" height="57.692307692307686" as="geometry" />
        </mxCell>
        <mxCell id="gfG6gXxhwaxKdNr7QjR5-15" value="&lt;span style=&quot;font-size: 22px;&quot;&gt;Metadata Curation for country absence&lt;/span&gt;" style="rounded=0;whiteSpace=wrap;html=1;container=0;fontSize=18;fontStyle=0;strokeWidth=3;" parent="1" vertex="1">
          <mxGeometry x="475" y="810" width="300" height="70" as="geometry" />
        </mxCell>
        <mxCell id="gfG6gXxhwaxKdNr7QjR5-16" value="" style="endArrow=classic;html=1;rounded=0;targetPerimeterSpacing=12;sourcePerimeterSpacing=12;strokeWidth=3;" parent="1" source="gfG6gXxhwaxKdNr7QjR5-14" target="gfG6gXxhwaxKdNr7QjR5-15" edge="1">
          <mxGeometry width="50" height="50" relative="1" as="geometry">
            <mxPoint x="975" y="720" as="sourcePoint" />
            <mxPoint x="1025" y="670" as="targetPoint" />
          </mxGeometry>
        </mxCell>
        <mxCell id="gfG6gXxhwaxKdNr7QjR5-17" value="&lt;span style=&quot;font-size: 22px;&quot;&gt;Metadata Curation for accessing submitted country quality&lt;/span&gt;" style="rounded=0;whiteSpace=wrap;html=1;container=0;fontSize=18;fontStyle=0;strokeWidth=3;" parent="1" vertex="1">
          <mxGeometry x="825" y="795" width="300" height="100" as="geometry" />
        </mxCell>
        <mxCell id="gfG6gXxhwaxKdNr7QjR5-18" value="" style="endArrow=classic;html=1;rounded=0;targetPerimeterSpacing=12;sourcePerimeterSpacing=12;strokeWidth=3;" parent="1" source="gfG6gXxhwaxKdNr7QjR5-14" target="gfG6gXxhwaxKdNr7QjR5-17" edge="1">
          <mxGeometry width="50" height="50" relative="1" as="geometry">
            <mxPoint x="875" y="710" as="sourcePoint" />
            <mxPoint x="713" y="808" as="targetPoint" />
          </mxGeometry>
        </mxCell>
        <mxCell id="gfG6gXxhwaxKdNr7QjR5-19" value="&lt;span style=&quot;font-size: 22px;&quot;&gt;6 Instances where country of origin is detected, correspondign to 26 mentions in total&lt;/span&gt;" style="rounded=0;whiteSpace=wrap;html=1;container=0;fontSize=18;fontStyle=0;strokeWidth=3;" parent="1" vertex="1">
          <mxGeometry x="460" y="970" width="330" height="120" as="geometry" />
        </mxCell>
        <mxCell id="gfG6gXxhwaxKdNr7QjR5-20" value="&lt;span style=&quot;font-size: 22px;&quot;&gt;Metadata Curation for country absence&lt;/span&gt;" style="rounded=0;whiteSpace=wrap;html=1;container=0;fontSize=18;fontStyle=0;strokeWidth=3;" parent="1" vertex="1">
          <mxGeometry x="825" y="995" width="300" height="70" as="geometry" />
        </mxCell>
        <mxCell id="gfG6gXxhwaxKdNr7QjR5-21" value="" style="edgeStyle=none;orthogonalLoop=1;jettySize=auto;html=1;shape=flexArrow;rounded=1;startSize=8;endSize=4.109756097560976;strokeWidth=2;targetPerimeterSpacing=8;sourcePerimeterSpacing=5;endWidth=26.463414634146343;" parent="1" source="gfG6gXxhwaxKdNr7QjR5-20" target="gfG6gXxhwaxKdNr7QjR5-22" edge="1">
          <mxGeometry width="100" relative="1" as="geometry">
            <mxPoint x="975" y="1070" as="sourcePoint" />
            <mxPoint x="975" y="1130" as="targetPoint" />
            <Array as="points">
              <mxPoint x="975" y="1085" />
            </Array>
          </mxGeometry>
        </mxCell>
        <mxCell id="gfG6gXxhwaxKdNr7QjR5-22" value="&lt;font style=&quot;text-wrap-mode: nowrap; font-size: 17px;&quot;&gt;Only a mere of 853 registries&lt;/font&gt;&lt;div style=&quot;font-size: 11px; text-wrap-mode: nowrap;&quot;&gt;&lt;font style=&quot;font-size: 17px;&quot;&gt;out of 5441 have&amp;nbsp;&lt;span style=&quot;background-color: light-dark(#ffffff, var(--ge-dark-color, #121212)); color: light-dark(rgb(0, 0, 0), rgb(255, 255, 255));&quot;&gt;sufficient&lt;/span&gt;&lt;/font&gt;&lt;/div&gt;&lt;div style=&quot;font-size: 11px; text-wrap-mode: nowrap;&quot;&gt;&lt;span style=&quot;background-color: light-dark(#ffffff, var(--ge-dark-color, #121212)); color: light-dark(rgb(0, 0, 0), rgb(255, 255, 255));&quot;&gt;&lt;font style=&quot;font-size: 17px;&quot;&gt;metadata for this type of curation!&lt;/font&gt;&lt;/span&gt;&lt;/div&gt;" style="rounded=0;whiteSpace=wrap;html=1;strokeWidth=3;" parent="1" vertex="1">
          <mxGeometry x="835" y="1140" width="280" height="90" as="geometry" />
        </mxCell>
        <mxCell id="gfG6gXxhwaxKdNr7QjR5-23" value="&lt;span style=&quot;text-wrap-mode: nowrap;&quot;&gt;&lt;font style=&quot;font-size: 15px;&quot;&gt;53 Instances where the country&amp;nbsp;&lt;/font&gt;&lt;/span&gt;&lt;span style=&quot;font-size: 15px; text-wrap-mode: nowrap; background-color: transparent; color: light-dark(rgb(0, 0, 0), rgb(255, 255, 255));&quot;&gt;of&lt;/span&gt;&lt;div&gt;&lt;span style=&quot;font-size: 15px; text-wrap-mode: nowrap; background-color: transparent; color: light-dark(rgb(0, 0, 0), rgb(255, 255, 255));&quot;&gt;origin does not allign with&amp;nbsp;&lt;/span&gt;&lt;span style=&quot;font-size: 15px; text-wrap-mode: nowrap; background-color: transparent; color: light-dark(rgb(0, 0, 0), rgb(255, 255, 255));&quot;&gt;coordinates.&lt;/span&gt;&lt;/div&gt;&lt;div&gt;&lt;span style=&quot;font-size: 15px; text-wrap-mode: nowrap; background-color: transparent; color: light-dark(rgb(0, 0, 0), rgb(255, 255, 255));&quot;&gt;&amp;nbsp;Flagging but not revisioning.&lt;/span&gt;&lt;/div&gt;" style="rounded=0;whiteSpace=wrap;html=1;strokeWidth=3;" parent="1" vertex="1">
          <mxGeometry x="835" y="1300" width="280" height="90" as="geometry" />
        </mxCell>
        <mxCell id="gfG6gXxhwaxKdNr7QjR5-24" value="" style="edgeStyle=none;orthogonalLoop=1;jettySize=auto;html=1;shape=flexArrow;rounded=1;startSize=8;endSize=8;strokeWidth=3;targetPerimeterSpacing=9;sourcePerimeterSpacing=9;" parent="1" source="gfG6gXxhwaxKdNr7QjR5-17" target="gfG6gXxhwaxKdNr7QjR5-20" edge="1">
          <mxGeometry width="100" relative="1" as="geometry">
            <mxPoint x="995" y="923" as="sourcePoint" />
            <mxPoint x="995" y="983" as="targetPoint" />
            <Array as="points" />
          </mxGeometry>
        </mxCell>
        <mxCell id="gfG6gXxhwaxKdNr7QjR5-25" value="" style="edgeStyle=none;orthogonalLoop=1;jettySize=auto;html=1;shape=flexArrow;rounded=1;startSize=8;endSize=8;strokeWidth=3;targetPerimeterSpacing=9;sourcePerimeterSpacing=9;" parent="1" source="gfG6gXxhwaxKdNr7QjR5-15" target="gfG6gXxhwaxKdNr7QjR5-19" edge="1">
          <mxGeometry width="100" relative="1" as="geometry">
            <mxPoint x="811" y="884" as="sourcePoint" />
            <mxPoint x="811" y="966" as="targetPoint" />
            <Array as="points" />
          </mxGeometry>
        </mxCell>
        <mxCell id="gfG6gXxhwaxKdNr7QjR5-26" value="" style="edgeStyle=none;orthogonalLoop=1;jettySize=auto;html=1;shape=flexArrow;rounded=1;startSize=8;endSize=4.109756097560976;strokeWidth=2;targetPerimeterSpacing=6;sourcePerimeterSpacing=5;endWidth=26.463414634146343;" parent="1" source="gfG6gXxhwaxKdNr7QjR5-22" target="gfG6gXxhwaxKdNr7QjR5-23" edge="1">
          <mxGeometry width="100" relative="1" as="geometry">
            <mxPoint x="985" y="1233" as="sourcePoint" />
            <mxPoint x="975" y="1300" as="targetPoint" />
            <Array as="points" />
          </mxGeometry>
        </mxCell>
        <mxCell id="gfG6gXxhwaxKdNr7QjR5-27" value="&lt;span style=&quot;font-size: 22px;&quot;&gt;Revisioning the json file to include country of origin in 26 registries&lt;/span&gt;" style="rounded=0;whiteSpace=wrap;html=1;container=0;fontSize=18;fontStyle=0;strokeWidth=3;" parent="1" vertex="1">
          <mxGeometry x="460" y="1180" width="330" height="100" as="geometry" />
        </mxCell>
        <mxCell id="gfG6gXxhwaxKdNr7QjR5-28" value="" style="edgeStyle=none;orthogonalLoop=1;jettySize=auto;html=1;shape=flexArrow;rounded=1;startSize=8;endSize=8;strokeWidth=3;targetPerimeterSpacing=9;sourcePerimeterSpacing=9;" parent="1" source="gfG6gXxhwaxKdNr7QjR5-19" target="gfG6gXxhwaxKdNr7QjR5-27" edge="1">
          <mxGeometry width="100" relative="1" as="geometry">
            <mxPoint x="635" y="899" as="sourcePoint" />
            <mxPoint x="635" y="971" as="targetPoint" />
            <Array as="points" />
          </mxGeometry>
        </mxCell>
        <mxCell id="gfG6gXxhwaxKdNr7QjR5-29" value="&lt;span style=&quot;font-size: 22px;&quot;&gt;Utilizing matplotlib library for metadata visualisation&lt;/span&gt;" style="rounded=0;whiteSpace=wrap;html=1;container=0;fontSize=18;fontStyle=0;strokeWidth=3;" parent="1" vertex="1">
          <mxGeometry x="637.16" y="1490" width="307.84" height="90" as="geometry" />
        </mxCell>
        <mxCell id="gfG6gXxhwaxKdNr7QjR5-30" value="" style="edgeStyle=none;orthogonalLoop=1;jettySize=auto;html=1;shape=flexArrow;rounded=1;startSize=8;endSize=8;strokeWidth=3;targetPerimeterSpacing=9;sourcePerimeterSpacing=9;" parent="1" source="gfG6gXxhwaxKdNr7QjR5-27" target="gfG6gXxhwaxKdNr7QjR5-29" edge="1">
          <mxGeometry width="100" relative="1" as="geometry">
            <mxPoint x="635" y="1109" as="sourcePoint" />
            <mxPoint x="635" y="1181" as="targetPoint" />
            <Array as="points" />
          </mxGeometry>
        </mxCell>
        <mxCell id="gfG6gXxhwaxKdNr7QjR5-31" value="" style="edgeStyle=none;orthogonalLoop=1;jettySize=auto;html=1;shape=flexArrow;rounded=1;startSize=8;endSize=8;strokeWidth=3;targetPerimeterSpacing=14;sourcePerimeterSpacing=9;" parent="1" source="gfG6gXxhwaxKdNr7QjR5-23" target="gfG6gXxhwaxKdNr7QjR5-29" edge="1">
          <mxGeometry width="100" relative="1" as="geometry">
            <mxPoint x="669" y="1299" as="sourcePoint" />
            <mxPoint x="778" y="1491" as="targetPoint" />
            <Array as="points" />
          </mxGeometry>
        </mxCell>
        <mxCell id="gfG6gXxhwaxKdNr7QjR5-32" value="&lt;span style=&quot;font-size: 22px;&quot;&gt;Exporting metadata as csv&lt;/span&gt;" style="rounded=0;whiteSpace=wrap;html=1;container=0;fontSize=18;fontStyle=0;strokeWidth=3;" parent="1" vertex="1">
          <mxGeometry x="637.16" y="1680" width="307.84" height="90" as="geometry" />
        </mxCell>
        <mxCell id="gfG6gXxhwaxKdNr7QjR5-33" value="" style="shape=image;verticalLabelPosition=bottom;labelBackgroundColor=default;verticalAlign=top;aspect=fixed;imageAspect=0;image=https://cdn-icons-png.flaticon.com/512/43/43869.png;" parent="1" vertex="1">
          <mxGeometry x="771.0799999999999" y="1610" width="40" height="40" as="geometry" />
        </mxCell>
      </root>
    </mxGraphModel>
  </diagram>
</mxfile>
